STARTFONT 2.1
FONT -Adobe-ITC Avant Garde Gothic-Demi-O-Normal--14-100-100-100-P-82-ISO8859-1
SIZE 10 100 100
FONTBOUNDINGBOX 21 15 -2 -3

STARTPROPERTIES 26
_DEC_DEVICE_FONTNAMES "PS=AvantGarde-DemiOblique"
FONTNAME_REGISTRY ""
FAMILY_NAME "ITC Avant Garde Gothic"
FOUNDRY "Adobe"
WEIGHT_NAME "Demi"
SLANT "O"
SETWIDTH_NAME "Normal"
ADD_STYLE_NAME ""
PIXEL_SIZE 14
POINT_SIZE 100
RESOLUTION_X 100
RESOLUTION_Y 100
SPACING "P"
AVERAGE_WIDTH 82
CHARSET_REGISTRY "ISO8859"
CHARSET_ENCODING "1"
CHARSET_COLLECTIONS "ASCII ISO8859-1 ADOBE-STANDARD"
FULL_NAME "ITC Avant Garde Gothic Demi Oblique"
COPYRIGHT "Copyright (c) 1991 Adobe Systems, Inc."
CAP_HEIGHT 11
X_HEIGHT 8
WEIGHT 10
QUAD_WIDTH 9
DEFAULT_CHAR 0
FONT_DESCENT 3
FONT_ASCENT 12
ENDPROPERTIES

CHARS 190

STARTCHAR space
ENCODING 32
SWIDTH 280 0
DWIDTH 4 0
BBX 1 1 0 0
BITMAP
00
ENDCHAR

STARTCHAR exclam
ENCODING 33
SWIDTH 280 0
DWIDTH 5 0
BBX 4 11 0 0
BITMAP
30
30
30
30
60
60
60
60
00
C0
C0
ENDCHAR

STARTCHAR quotedbl
ENCODING 34
SWIDTH 360 0
DWIDTH 5 0
BBX 3 3 1 8
BITMAP
A0
A0
A0
ENDCHAR

STARTCHAR numbersign
ENCODING 35
SWIDTH 560 0
DWIDTH 8 0
BBX 9 10 -1 0
BITMAP
1B00
1B00
1B00
7F80
3600
3600
FF00
6C00
6C00
6C00
ENDCHAR

STARTCHAR dollar
ENCODING 36
SWIDTH 560 0
DWIDTH 8 0
BBX 7 13 0 -1
BITMAP
0C
1C
3E
66
60
78
3C
0C
0C
DC
F8
70
60
ENDCHAR

STARTCHAR percent
ENCODING 37
SWIDTH 860 0
DWIDTH 13 0
BBX 12 12 0 -1
BITMAP
3880
6C80
CD00
D900
7200
0200
04E0
05B0
0B30
0B60
11C0
1000
ENDCHAR

STARTCHAR ampersand
ENCODING 38
SWIDTH 680 0
DWIDTH 11 0
BBX 10 11 0 0
BITMAP
0E00
1F00
3300
3300
3E00
7CC0
EF80
C700
CF80
FDC0
70C0
ENDCHAR

STARTCHAR quoteright
ENCODING 39
SWIDTH 280 0
DWIDTH 4 0
BBX 2 4 1 7
BITMAP
C0
C0
40
80
ENDCHAR

STARTCHAR parenleft
ENCODING 40
SWIDTH 380 0
DWIDTH 7 0
BBX 6 13 0 -2
BITMAP
0C
1C
38
70
60
60
C0
C0
C0
C0
E0
70
30
ENDCHAR

STARTCHAR parenright
ENCODING 41
SWIDTH 380 0
DWIDTH 7 0
BBX 6 13 0 -2
BITMAP
30
38
1C
0C
0C
0C
0C
18
18
38
70
E0
C0
ENDCHAR

STARTCHAR asterisk
ENCODING 42
SWIDTH 440 0
DWIDTH 7 0
BBX 6 5 0 6
BITMAP
48
30
FC
30
48
ENDCHAR

STARTCHAR plus
ENCODING 43
SWIDTH 600 0
DWIDTH 9 0
BBX 7 8 1 0
BITMAP
18
18
18
FE
FE
30
30
30
ENDCHAR

STARTCHAR comma
ENCODING 44
SWIDTH 280 0
DWIDTH 4 0
BBX 2 4 0 -2
BITMAP
C0
C0
40
80
ENDCHAR

STARTCHAR minus
ENCODING 45
SWIDTH 600 0
DWIDTH 8 0
BBX 7 2 0 3
BITMAP
FE
FE
ENDCHAR

STARTCHAR period
ENCODING 46
SWIDTH 280 0
DWIDTH 4 0
BBX 2 2 0 0
BITMAP
C0
C0
ENDCHAR

STARTCHAR slash
ENCODING 47
SWIDTH 460 0
DWIDTH 8 0
BBX 7 11 0 0
BITMAP
06
04
0C
08
18
10
30
20
60
40
C0
ENDCHAR

STARTCHAR zero
ENCODING 48
SWIDTH 560 0
DWIDTH 8 0
BBX 7 11 0 0
BITMAP
1C
7E
66
66
C6
C6
CC
CC
CC
FC
70
ENDCHAR

STARTCHAR one
ENCODING 49
SWIDTH 560 0
DWIDTH 8 0
BBX 4 11 2 0
BITMAP
70
70
30
60
60
60
60
C0
C0
C0
C0
ENDCHAR

STARTCHAR two
ENCODING 50
SWIDTH 560 0
DWIDTH 8 0
BBX 7 11 0 0
BITMAP
1C
7E
66
66
06
0C
18
30
60
FC
FC
ENDCHAR

STARTCHAR three
ENCODING 51
SWIDTH 560 0
DWIDTH 8 0
BBX 7 11 0 0
BITMAP
3C
7E
66
06
1C
1C
06
06
CE
FC
78
ENDCHAR

STARTCHAR four
ENCODING 52
SWIDTH 560 0
DWIDTH 8 0
BBX 7 11 0 0
BITMAP
1E
1E
36
36
6C
6C
CC
FE
FE
18
18
ENDCHAR

STARTCHAR five
ENCODING 53
SWIDTH 560 0
DWIDTH 8 0
BBX 7 11 0 0
BITMAP
3E
3E
30
60
7C
7E
06
C6
CE
FC
78
ENDCHAR

STARTCHAR six
ENCODING 54
SWIDTH 560 0
DWIDTH 8 0
BBX 7 11 0 0
BITMAP
0E
1C
38
70
7C
FE
C6
C6
CE
FC
78
ENDCHAR

STARTCHAR seven
ENCODING 55
SWIDTH 560 0
DWIDTH 8 0
BBX 7 11 0 0
BITMAP
FE
FE
06
0C
0C
18
18
30
30
60
60
ENDCHAR

STARTCHAR eight
ENCODING 56
SWIDTH 560 0
DWIDTH 8 0
BBX 7 11 0 0
BITMAP
1C
3E
66
66
3C
7C
66
C6
C6
FC
78
ENDCHAR

STARTCHAR nine
ENCODING 57
SWIDTH 560 0
DWIDTH 8 0
BBX 7 11 0 0
BITMAP
3C
7E
E6
C6
C6
FE
7C
1C
38
70
E0
ENDCHAR

STARTCHAR colon
ENCODING 58
SWIDTH 280 0
DWIDTH 4 0
BBX 3 7 0 0
BITMAP
60
60
00
00
00
C0
C0
ENDCHAR

STARTCHAR semicolon
ENCODING 59
SWIDTH 280 0
DWIDTH 4 0
BBX 3 9 0 -2
BITMAP
60
60
00
00
00
C0
C0
40
80
ENDCHAR

STARTCHAR less
ENCODING 60
SWIDTH 600 0
DWIDTH 9 0
BBX 9 9 0 0
BITMAP
0080
0380
0E00
3800
E000
E000
3800
0E00
0200
ENDCHAR

STARTCHAR equal
ENCODING 61
SWIDTH 600 0
DWIDTH 9 0
BBX 8 5 0 2
BITMAP
7F
7F
00
FE
FE
ENDCHAR

STARTCHAR greater
ENCODING 62
SWIDTH 600 0
DWIDTH 9 0
BBX 9 9 -1 0
BITMAP
2000
3800
0E00
0380
0380
0E00
3800
E000
8000
ENDCHAR

STARTCHAR question
ENCODING 63
SWIDTH 560 0
DWIDTH 8 0
BBX 6 11 1 0
BITMAP
78
FC
CC
1C
38
70
E0
C0
00
C0
C0
ENDCHAR

STARTCHAR at
ENCODING 64
SWIDTH 740 0
DWIDTH 15 0
BBX 13 11 1 0
BITMAP
07E0
1810
26C8
4FC8
58C8
9990
9990
9FA0
8DC0
4010
3FE0
ENDCHAR

STARTCHAR A
ENCODING 65
SWIDTH 740 0
DWIDTH 10 0
BBX 9 11 -1 0
BITMAP
0700
0F00
0F00
1B00
1B00
3300
3F80
7F80
6180
C180
C180
ENDCHAR

STARTCHAR B
ENCODING 66
SWIDTH 580 0
DWIDTH 9 0
BBX 9 11 0 0
BITMAP
3E00
3F00
3300
6700
7E00
7C00
6600
C600
CE00
FC00
F800
ENDCHAR

STARTCHAR C
ENCODING 67
SWIDTH 780 0
DWIDTH 10 0
BBX 9 11 0 0
BITMAP
0F00
3F80
7180
6000
C000
C000
C000
C000
E300
7F00
3C00
ENDCHAR

STARTCHAR D
ENCODING 68
SWIDTH 700 0
DWIDTH 10 0
BBX 9 11 0 0
BITMAP
3E00
3F00
3380
6180
6180
6180
6180
C300
C700
FE00
F800
ENDCHAR

STARTCHAR E
ENCODING 69
SWIDTH 520 0
DWIDTH 7 0
BBX 7 11 0 0
BITMAP
3E
3E
30
60
7C
7C
60
C0
C0
F8
F8
ENDCHAR

STARTCHAR F
ENCODING 70
SWIDTH 480 0
DWIDTH 7 0
BBX 7 11 0 0
BITMAP
3E
3E
30
60
7C
7C
60
C0
C0
C0
C0
ENDCHAR

STARTCHAR G
ENCODING 71
SWIDTH 840 0
DWIDTH 11 0
BBX 10 11 0 0
BITMAP
0F80
3FC0
70C0
6000
C000
CFC0
CFC0
C180
E380
7F00
3C00
ENDCHAR

STARTCHAR H
ENCODING 72
SWIDTH 680 0
DWIDTH 10 0
BBX 9 11 0 0
BITMAP
3180
3180
3180
6300
7F00
7F00
6300
C600
C600
C600
C600
ENDCHAR

STARTCHAR I
ENCODING 73
SWIDTH 280 0
DWIDTH 4 0
BBX 4 11 0 0
BITMAP
30
30
30
60
60
60
60
C0
C0
C0
C0
ENDCHAR

STARTCHAR J
ENCODING 74
SWIDTH 480 0
DWIDTH 8 0
BBX 7 11 0 0
BITMAP
06
06
06
0C
0C
0C
0C
18
D8
F8
70
ENDCHAR

STARTCHAR K
ENCODING 75
SWIDTH 620 0
DWIDTH 9 0
BBX 10 11 0 0
BITMAP
30C0
3180
3300
6600
6C00
7800
7800
CC00
CC00
C600
C600
ENDCHAR

STARTCHAR L
ENCODING 76
SWIDTH 440 0
DWIDTH 6 0
BBX 7 11 0 0
BITMAP
30
30
30
60
60
60
60
C0
C0
F8
F8
ENDCHAR

STARTCHAR M
ENCODING 77
SWIDTH 900 0
DWIDTH 14 0
BBX 13 11 0 0
BITMAP
3878
3878
38D8
6CF0
6DB0
6DB0
6F30
CF60
CE60
CE60
CC60
ENDCHAR

STARTCHAR N
ENCODING 78
SWIDTH 740 0
DWIDTH 11 0
BBX 10 11 0 0
BITMAP
38C0
38C0
38C0
7D80
6D80
6D80
6F80
C700
C700
C700
C300
ENDCHAR

STARTCHAR O
ENCODING 79
SWIDTH 840 0
DWIDTH 11 0
BBX 10 11 0 0
BITMAP
0F00
3F80
71C0
60C0
C0C0
C0C0
C0C0
C180
E380
7F00
3C00
ENDCHAR

STARTCHAR P
ENCODING 80
SWIDTH 560 0
DWIDTH 8 0
BBX 8 11 0 0
BITMAP
3E
3F
33
63
66
7E
78
C0
C0
C0
C0
ENDCHAR

STARTCHAR Q
ENCODING 81
SWIDTH 840 0
DWIDTH 11 0
BBX 10 11 0 0
BITMAP
0F00
3F80
71C0
60C0
C0C0
C0C0
DEC0
FF80
E380
7FC0
3CC0
ENDCHAR

STARTCHAR R
ENCODING 82
SWIDTH 580 0
DWIDTH 9 0
BBX 8 11 0 0
BITMAP
3E
3F
33
63
66
7E
78
CC
CC
C6
C6
ENDCHAR

STARTCHAR S
ENCODING 83
SWIDTH 520 0
DWIDTH 8 0
BBX 7 11 0 0
BITMAP
1C
3E
66
60
70
38
1C
0C
CC
F8
70
ENDCHAR

STARTCHAR T
ENCODING 84
SWIDTH 420 0
DWIDTH 7 0
BBX 6 11 1 0
BITMAP
FC
FC
30
60
60
60
60
C0
C0
C0
C0
ENDCHAR

STARTCHAR U
ENCODING 85
SWIDTH 640 0
DWIDTH 9 0
BBX 9 11 0 0
BITMAP
3180
3180
3180
6300
6300
6300
C600
C600
C600
FC00
7800
ENDCHAR

STARTCHAR V
ENCODING 86
SWIDTH 700 0
DWIDTH 10 0
BBX 9 11 1 0
BITMAP
C180
C180
C300
C300
C600
6600
6C00
6C00
7800
7800
7000
ENDCHAR

STARTCHAR W
ENCODING 87
SWIDTH 900 0
DWIDTH 15 0
BBX 14 11 1 0
BITMAP
C30C
C30C
C718
C718
6DB0
6DB0
79E0
79E0
71C0
71C0
6180
ENDCHAR

STARTCHAR X
ENCODING 88
SWIDTH 680 0
DWIDTH 10 0
BBX 13 11 -2 0
BITMAP
0C38
0C70
06E0
07C0
0780
0700
0F80
1D80
3980
70C0
E0C0
ENDCHAR

STARTCHAR Y
ENCODING 89
SWIDTH 620 0
DWIDTH 9 0
BBX 8 11 1 0
BITMAP
C3
C3
C6
6C
6C
78
30
30
60
60
60
ENDCHAR

STARTCHAR Z
ENCODING 90
SWIDTH 500 0
DWIDTH 9 0
BBX 8 11 0 0
BITMAP
3F
3F
03
06
0C
18
30
60
C0
FC
FC
ENDCHAR

STARTCHAR bracketleft
ENCODING 91
SWIDTH 320 0
DWIDTH 6 0
BBX 6 13 0 -2
BITMAP
1C
3C
30
30
60
60
60
60
C0
C0
C0
F0
70
ENDCHAR

STARTCHAR backslash
ENCODING 92
SWIDTH 640 0
DWIDTH 9 0
BBX 7 11 1 0
BITMAP
C0
40
60
20
30
10
18
08
0C
04
06
ENDCHAR

STARTCHAR bracketright
ENCODING 93
SWIDTH 320 0
DWIDTH 7 0
BBX 6 13 0 -2
BITMAP
38
3C
0C
0C
18
18
18
18
30
30
30
F0
E0
ENDCHAR

STARTCHAR asciicircum
ENCODING 94
SWIDTH 600 0
DWIDTH 9 0
BBX 8 6 0 5
BITMAP
06
0E
1E
33
63
C3
ENDCHAR

STARTCHAR underscore
ENCODING 95
SWIDTH 500 0
DWIDTH 7 0
BBX 7 1 0 -2
BITMAP
FE
ENDCHAR

STARTCHAR quoteleft
ENCODING 96
SWIDTH 280 0
DWIDTH 4 0
BBX 2 4 1 7
BITMAP
40
80
C0
C0
ENDCHAR

STARTCHAR a
ENCODING 97
SWIDTH 660 0
DWIDTH 9 0
BBX 8 8 0 0
BITMAP
1B
7F
63
C3
C6
C6
7E
36
ENDCHAR

STARTCHAR b
ENCODING 98
SWIDTH 660 0
DWIDTH 9 0
BBX 8 11 0 0
BITMAP
30
30
30
6E
7F
63
63
C3
C6
FE
D8
ENDCHAR

STARTCHAR c
ENCODING 99
SWIDTH 640 0
DWIDTH 9 0
BBX 8 8 0 0
BITMAP
1E
7F
63
C0
C0
C6
7E
38
ENDCHAR

STARTCHAR d
ENCODING 100
SWIDTH 660 0
DWIDTH 9 0
BBX 9 11 0 0
BITMAP
0180
0180
0180
1B00
7F00
6300
C300
C600
C600
7E00
3600
ENDCHAR

STARTCHAR e
ENCODING 101
SWIDTH 640 0
DWIDTH 9 0
BBX 8 8 0 0
BITMAP
1E
7F
63
FF
FF
C0
7E
3C
ENDCHAR

STARTCHAR f
ENCODING 102
SWIDTH 280 0
DWIDTH 4 0
BBX 6 11 0 0
BITMAP
1C
3C
30
F8
F8
60
60
C0
C0
C0
C0
ENDCHAR

STARTCHAR g
ENCODING 103
SWIDTH 660 0
DWIDTH 9 0
BBX 9 11 -1 -3
BITMAP
0D80
3F80
3180
6180
6180
6300
3F00
1B00
C600
FE00
7800
ENDCHAR

STARTCHAR h
ENCODING 104
SWIDTH 600 0
DWIDTH 9 0
BBX 8 11 0 0
BITMAP
30
30
30
6E
7F
63
63
C6
C6
C6
C6
ENDCHAR

STARTCHAR i
ENCODING 105
SWIDTH 240 0
DWIDTH 4 0
BBX 4 11 0 0
BITMAP
30
30
00
60
60
60
60
C0
C0
C0
C0
ENDCHAR

STARTCHAR j
ENCODING 106
SWIDTH 260 0
DWIDTH 4 0
BBX 6 14 -2 -3
BITMAP
0C
0C
00
18
18
18
18
18
30
30
30
30
E0
C0
ENDCHAR

STARTCHAR k
ENCODING 107
SWIDTH 580 0
DWIDTH 8 0
BBX 8 11 0 0
BITMAP
30
30
30
63
66
6C
78
F8
DC
CE
C6
ENDCHAR

STARTCHAR l
ENCODING 108
SWIDTH 240 0
DWIDTH 4 0
BBX 4 11 0 0
BITMAP
30
30
30
60
60
60
60
C0
C0
C0
C0
ENDCHAR

STARTCHAR m
ENCODING 109
SWIDTH 940 0
DWIDTH 14 0
BBX 13 8 0 0
BITMAP
6EF0
7FF8
6318
6318
C630
C630
C630
C630
ENDCHAR

STARTCHAR n
ENCODING 110
SWIDTH 600 0
DWIDTH 9 0
BBX 8 8 0 0
BITMAP
6E
7F
63
63
C6
C6
C6
C6
ENDCHAR

STARTCHAR o
ENCODING 111
SWIDTH 640 0
DWIDTH 9 0
BBX 8 8 0 0
BITMAP
1E
7F
63
C3
C3
C6
7E
38
ENDCHAR

STARTCHAR p
ENCODING 112
SWIDTH 660 0
DWIDTH 9 0
BBX 9 11 -1 -3
BITMAP
3700
3F80
3180
3180
6180
6300
7F00
6C00
C000
C000
C000
ENDCHAR

STARTCHAR q
ENCODING 113
SWIDTH 660 0
DWIDTH 9 0
BBX 8 11 0 -3
BITMAP
1B
7F
63
C3
C6
C6
7E
36
0C
0C
0C
ENDCHAR

STARTCHAR r
ENCODING 114
SWIDTH 320 0
DWIDTH 6 0
BBX 6 8 0 0
BITMAP
6C
7C
70
60
C0
C0
C0
C0
ENDCHAR

STARTCHAR s
ENCODING 115
SWIDTH 440 0
DWIDTH 7 0
BBX 6 8 0 0
BITMAP
38
7C
6C
70
38
D8
F8
70
ENDCHAR

STARTCHAR t
ENCODING 116
SWIDTH 300 0
DWIDTH 5 0
BBX 5 11 0 0
BITMAP
30
30
30
F8
F8
60
60
C0
C0
C0
C0
ENDCHAR

STARTCHAR u
ENCODING 117
SWIDTH 600 0
DWIDTH 9 0
BBX 8 8 0 0
BITMAP
63
63
63
63
C6
C6
FE
76
ENDCHAR

STARTCHAR v
ENCODING 118
SWIDTH 560 0
DWIDTH 8 0
BBX 7 8 0 0
BITMAP
C6
C6
CC
CC
78
78
70
70
ENDCHAR

STARTCHAR w
ENCODING 119
SWIDTH 800 0
DWIDTH 13 0
BBX 12 8 0 0
BITMAP
C630
C630
CE60
CE60
7BC0
7BC0
7380
7380
ENDCHAR

STARTCHAR x
ENCODING 120
SWIDTH 560 0
DWIDTH 9 0
BBX 9 8 0 0
BITMAP
3180
3300
1E00
1C00
1C00
3C00
6600
C600
ENDCHAR

STARTCHAR y
ENCODING 121
SWIDTH 580 0
DWIDTH 7 0
BBX 7 11 0 -3
BITMAP
C6
C6
CC
6C
78
78
30
60
60
C0
C0
ENDCHAR

STARTCHAR z
ENCODING 122
SWIDTH 460 0
DWIDTH 7 0
BBX 6 8 0 0
BITMAP
7C
7C
18
30
60
C0
F8
F8
ENDCHAR

STARTCHAR braceleft
ENCODING 123
SWIDTH 340 0
DWIDTH 7 0
BBX 6 13 0 -2
BITMAP
0C
18
18
30
30
30
C0
60
60
60
60
60
30
ENDCHAR

STARTCHAR bar
ENCODING 124
SWIDTH 600 0
DWIDTH 9 0
BBX 4 12 2 -1
BITMAP
30
30
30
30
60
60
60
60
C0
C0
C0
C0
ENDCHAR

STARTCHAR braceright
ENCODING 125
SWIDTH 340 0
DWIDTH 7 0
BBX 6 13 0 -2
BITMAP
30
18
18
18
18
18
0C
30
30
30
60
60
C0
ENDCHAR

STARTCHAR asciitilde
ENCODING 126
SWIDTH 600 0
DWIDTH 9 0
BBX 8 2 0 3
BITMAP
7B
DE
ENDCHAR

STARTCHAR exclamdown
ENCODING 161
SWIDTH 280 0
DWIDTH 5 0
BBX 4 11 0 -3
BITMAP
30
30
00
60
60
60
60
C0
C0
C0
C0
ENDCHAR

STARTCHAR cent
ENCODING 162
SWIDTH 560 0
DWIDTH 8 0
BBX 7 11 0 0
BITMAP
18
18
3C
7E
E6
C0
C6
FC
78
60
60
ENDCHAR

STARTCHAR sterling
ENCODING 163
SWIDTH 560 0
DWIDTH 8 0
BBX 8 11 0 0
BITMAP
1E
3F
73
60
60
FC
FC
30
66
FE
FC
ENDCHAR

STARTCHAR currency
ENCODING 164
SWIDTH 560 0
DWIDTH 10 0
BBX 9 7 0 2
BITMAP
4E80
7F80
3300
6300
6600
FF00
B900
ENDCHAR

STARTCHAR yen
ENCODING 165
SWIDTH 560 0
DWIDTH 8 0
BBX 9 11 -1 0
BITMAP
6180
6180
6300
3600
3600
7F00
1800
FE00
3000
3000
3000
ENDCHAR

STARTCHAR brokenbar
ENCODING 166
SWIDTH 600 0
DWIDTH 9 0
BBX 4 11 2 0
BITMAP
30
30
30
30
00
00
00
C0
C0
C0
C0
ENDCHAR

STARTCHAR section
ENCODING 167
SWIDTH 560 0
DWIDTH 10 0
BBX 9 13 0 -2
BITMAP
0F00
1F80
3180
3800
1E00
6700
6300
7300
3C00
0E00
C600
FC00
7800
ENDCHAR

STARTCHAR dieresis
ENCODING 168
SWIDTH 500 0
DWIDTH 7 0
BBX 5 2 1 9
BITMAP
D8
D8
ENDCHAR

STARTCHAR copyright
ENCODING 169
SWIDTH 740 0
DWIDTH 12 0
BBX 11 11 0 0
BITMAP
0F80
3040
4720
48A0
9020
9020
9120
8E40
8040
4180
3E00
ENDCHAR

STARTCHAR ordfeminine
ENCODING 170
SWIDTH 360 0
DWIDTH 7 0
BBX 6 7 1 4
BITMAP
34
4C
88
98
68
00
F8
ENDCHAR

STARTCHAR guillemotleft
ENCODING 171
SWIDTH 460 0
DWIDTH 7 0
BBX 7 6 -1 2
BITMAP
12
36
6C
D8
6C
24
ENDCHAR

STARTCHAR logicalnot
ENCODING 172
SWIDTH 600 0
DWIDTH 8 0
BBX 7 4 0 3
BITMAP
FE
FE
06
06
ENDCHAR

STARTCHAR hyphen
ENCODING 173
SWIDTH 420 0
DWIDTH 6 0
BBX 5 2 0 3
BITMAP
F8
F8
ENDCHAR

STARTCHAR registered
ENCODING 174
SWIDTH 740 0
DWIDTH 12 0
BBX 11 11 0 0
BITMAP
0F80
3040
4F20
48A0
88A0
9F20
9220
9140
8040
4180
3E00
ENDCHAR

STARTCHAR macron
ENCODING 175
SWIDTH 420 0
DWIDTH 7 0
BBX 5 1 1 9
BITMAP
F8
ENDCHAR

STARTCHAR degree
ENCODING 176
SWIDTH 400 0
DWIDTH 6 0
BBX 4 4 1 7
BITMAP
60
90
90
60
ENDCHAR

STARTCHAR plusminus
ENCODING 177
SWIDTH 600 0
DWIDTH 10 0
BBX 10 9 -1 0
BITMAP
0600
0600
7FC0
7FC0
0C00
0C00
0000
FF80
FF80
ENDCHAR

STARTCHAR twosuperior
ENCODING 178
SWIDTH 336 0
DWIDTH 5 0
BBX 5 6 0 5
BITMAP
70
D8
18
30
60
F8
ENDCHAR

STARTCHAR threesuperior
ENCODING 179
SWIDTH 336 0
DWIDTH 5 0
BBX 5 6 0 5
BITMAP
70
D8
30
18
D8
70
ENDCHAR

STARTCHAR acute
ENCODING 180
SWIDTH 420 0
DWIDTH 5 0
BBX 3 2 1 9
BITMAP
60
C0
ENDCHAR

STARTCHAR mu
ENCODING 181
SWIDTH 576 0
DWIDTH 9 0
BBX 9 11 -1 -3
BITMAP
3180
3180
3180
3180
6300
6300
7F00
7B00
C000
C000
C000
ENDCHAR

STARTCHAR paragraph
ENCODING 182
SWIDTH 600 0
DWIDTH 10 0
BBX 9 13 0 -2
BITMAP
3F80
7D80
FD80
FD80
FB00
7B00
1B00
1B00
3600
3600
3600
3600
3600
ENDCHAR

STARTCHAR periodcentered
ENCODING 183
SWIDTH 280 0
DWIDTH 4 0
BBX 2 2 0 3
BITMAP
C0
C0
ENDCHAR

STARTCHAR cedilla
ENCODING 184
SWIDTH 340 0
DWIDTH 6 0
BBX 4 3 1 -3
BITMAP
20
90
60
ENDCHAR

STARTCHAR onesuperior
ENCODING 185
SWIDTH 336 0
DWIDTH 5 0
BBX 3 6 1 5
BITMAP
E0
60
60
C0
C0
C0
ENDCHAR

STARTCHAR ordmasculine
ENCODING 186
SWIDTH 360 0
DWIDTH 6 0
BBX 5 7 1 4
BITMAP
30
48
88
90
60
00
F0
ENDCHAR

STARTCHAR guillemotright
ENCODING 187
SWIDTH 460 0
DWIDTH 7 0
BBX 7 6 0 2
BITMAP
48
6C
36
6C
D8
90
ENDCHAR

STARTCHAR onequarter
ENCODING 188
SWIDTH 840 0
DWIDTH 12 0
BBX 10 11 1 0
BITMAP
E200
6600
6400
CC00
C800
D980
1380
3780
2D00
6FC0
4300
ENDCHAR

STARTCHAR onehalf
ENCODING 189
SWIDTH 840 0
DWIDTH 12 0
BBX 10 11 1 0
BITMAP
E200
6600
6400
CC00
C800
DB80
16C0
30C0
2180
6300
47C0
ENDCHAR

STARTCHAR threequarters
ENCODING 190
SWIDTH 840 0
DWIDTH 12 0
BBX 12 11 0 0
BITMAP
7080
D980
3100
1B00
DA00
7660
04E0
0DE0
0B40
1BF0
10C0
ENDCHAR

STARTCHAR questiondown
ENCODING 191
SWIDTH 560 0
DWIDTH 7 0
BBX 6 11 0 -3
BITMAP
0C
0C
00
0C
1C
38
70
E0
CC
FC
78
ENDCHAR

STARTCHAR Agrave
ENCODING 192
SWIDTH 740 0
DWIDTH 10 0
BBX 9 11 -1 0
BITMAP
0600
0300
0000
0700
0F00
1B00
3300
3F80
7F80
E180
C180
ENDCHAR

STARTCHAR Aacute
ENCODING 193
SWIDTH 740 0
DWIDTH 10 0
BBX 9 11 -1 0
BITMAP
0180
0300
0000
0700
0F00
1B00
3300
3F80
7F80
E180
C180
ENDCHAR

STARTCHAR Acircumflex
ENCODING 194
SWIDTH 740 0
DWIDTH 10 0
BBX 9 11 -1 0
BITMAP
0700
0D80
0000
0700
0F00
1B00
3300
3F80
7F80
E180
C180
ENDCHAR

STARTCHAR Atilde
ENCODING 195
SWIDTH 740 0
DWIDTH 10 0
BBX 9 11 -1 0
BITMAP
0680
0B00
0000
0700
0F00
1B00
3300
3F80
7F80
E180
C180
ENDCHAR

STARTCHAR Adieresis
ENCODING 196
SWIDTH 740 0
DWIDTH 10 0
BBX 9 11 -1 0
BITMAP
0D80
0D80
0000
0700
0F00
1B00
3300
3F80
7F80
E180
C180
ENDCHAR

STARTCHAR Aring
ENCODING 197
SWIDTH 740 0
DWIDTH 10 0
BBX 9 11 -1 0
BITMAP
0300
0480
0300
0700
0F00
1B00
3300
3F80
7F80
E180
C180
ENDCHAR

STARTCHAR AE
ENCODING 198
SWIDTH 900 0
DWIDTH 14 0
BBX 15 11 -2 0
BITMAP
003E
007E
00F0
01E0
037C
067C
0FE0
1FC0
38C0
70F8
E0F8
ENDCHAR

STARTCHAR Ccedilla
ENCODING 199
SWIDTH 780 0
DWIDTH 10 0
BBX 9 14 0 -3
BITMAP
0F00
3F80
7180
6000
C000
C000
C000
C000
E300
7F00
3C00
1000
4800
3000
ENDCHAR

STARTCHAR Egrave
ENCODING 200
SWIDTH 520 0
DWIDTH 7 0
BBX 7 11 0 0
BITMAP
18
0C
00
3E
7E
60
7C
FC
C0
F8
F8
ENDCHAR

STARTCHAR Eacute
ENCODING 201
SWIDTH 520 0
DWIDTH 7 0
BBX 7 11 0 0
BITMAP
06
0C
00
3E
7E
60
7C
FC
C0
F8
F8
ENDCHAR

STARTCHAR Ecircumflex
ENCODING 202
SWIDTH 520 0
DWIDTH 7 0
BBX 7 11 0 0
BITMAP
1C
36
00
3E
7E
60
7C
FC
C0
F8
F8
ENDCHAR

STARTCHAR Edieresis
ENCODING 203
SWIDTH 520 0
DWIDTH 7 0
BBX 7 11 0 0
BITMAP
36
36
00
3E
7E
60
7C
FC
C0
F8
F8
ENDCHAR

STARTCHAR Igrave
ENCODING 204
SWIDTH 280 0
DWIDTH 4 0
BBX 4 11 0 0
BITMAP
60
30
00
60
60
60
60
C0
C0
C0
C0
ENDCHAR

STARTCHAR Iacute
ENCODING 205
SWIDTH 280 0
DWIDTH 4 0
BBX 5 11 0 0
BITMAP
18
30
00
60
60
60
60
C0
C0
C0
C0
ENDCHAR

STARTCHAR Icircumflex
ENCODING 206
SWIDTH 280 0
DWIDTH 4 0
BBX 6 11 0 0
BITMAP
38
6C
00
60
60
60
60
C0
C0
C0
C0
ENDCHAR

STARTCHAR Idieresis
ENCODING 207
SWIDTH 280 0
DWIDTH 4 0
BBX 6 11 0 0
BITMAP
6C
6C
00
60
60
60
60
C0
C0
C0
C0
ENDCHAR

STARTCHAR Eth
ENCODING 208
SWIDTH 742 0
DWIDTH 10 0
BBX 9 11 0 0
BITMAP
3E00
3F00
3380
6180
6180
F980
6180
C300
C700
FE00
F800
ENDCHAR

STARTCHAR Ntilde
ENCODING 209
SWIDTH 740 0
DWIDTH 11 0
BBX 10 11 0 0
BITMAP
0680
0B00
0000
38C0
38C0
6D80
6F80
C700
C700
C300
C300
ENDCHAR

STARTCHAR Ograve
ENCODING 210
SWIDTH 840 0
DWIDTH 11 0
BBX 10 11 0 0
BITMAP
0C00
0600
0000
0F00
3F80
71C0
C0C0
C180
E380
7F00
3C00
ENDCHAR

STARTCHAR Oacute
ENCODING 211
SWIDTH 840 0
DWIDTH 11 0
BBX 10 11 0 0
BITMAP
0180
0300
0000
0F00
3F80
71C0
C0C0
C180
E380
7F00
3C00
ENDCHAR

STARTCHAR Ocircumflex
ENCODING 212
SWIDTH 840 0
DWIDTH 11 0
BBX 10 11 0 0
BITMAP
0E00
1B00
0000
0F00
3F80
71C0
C0C0
C180
E380
7F00
3C00
ENDCHAR

STARTCHAR Otilde
ENCODING 213
SWIDTH 840 0
DWIDTH 11 0
BBX 10 11 0 0
BITMAP
0680
0B00
0000
0F00
3F80
71C0
C0C0
C180
E380
7F00
3C00
ENDCHAR

STARTCHAR Odieresis
ENCODING 214
SWIDTH 840 0
DWIDTH 11 0
BBX 10 11 0 0
BITMAP
1B00
1B00
0000
0F00
3F80
71C0
C0C0
C180
E380
7F00
3C00
ENDCHAR

STARTCHAR multiply
ENCODING 215
SWIDTH 600 0
DWIDTH 10 0
BBX 10 8 0 0
BITMAP
60C0
3180
1B00
0E00
1C00
3600
6300
C180
ENDCHAR

STARTCHAR Oslash
ENCODING 216
SWIDTH 840 0
DWIDTH 12 0
BBX 13 11 -1 0
BITMAP
0798
1FF0
3860
30E0
61E0
6360
6660
6CC0
79C0
7F80
DE00
ENDCHAR

STARTCHAR Ugrave
ENCODING 217
SWIDTH 640 0
DWIDTH 9 0
BBX 8 11 0 0
BITMAP
0C
06
00
63
63
63
C6
C6
C6
FC
78
ENDCHAR

STARTCHAR Uacute
ENCODING 218
SWIDTH 640 0
DWIDTH 9 0
BBX 8 11 0 0
BITMAP
03
06
00
63
63
63
C6
C6
C6
FC
78
ENDCHAR

STARTCHAR Ucircumflex
ENCODING 219
SWIDTH 640 0
DWIDTH 9 0
BBX 8 11 0 0
BITMAP
0E
1B
00
63
63
63
C6
C6
C6
FC
78
ENDCHAR

STARTCHAR Udieresis
ENCODING 220
SWIDTH 640 0
DWIDTH 9 0
BBX 8 11 0 0
BITMAP
1B
1B
00
63
63
63
C6
C6
C6
FC
78
ENDCHAR

STARTCHAR Yacute
ENCODING 221
SWIDTH 620 0
DWIDTH 9 0
BBX 8 11 1 0
BITMAP
0C
18
00
C3
C7
EE
7C
38
30
60
60
ENDCHAR

STARTCHAR Thorn
ENCODING 222
SWIDTH 560 0
DWIDTH 8 0
BBX 8 11 0 0
BITMAP
30
30
3E
7F
63
63
66
FE
F8
C0
C0
ENDCHAR

STARTCHAR germandbls
ENCODING 223
SWIDTH 600 0
DWIDTH 9 0
BBX 8 11 0 0
BITMAP
1E
3F
33
63
6E
6E
63
C3
F3
FE
DC
ENDCHAR

STARTCHAR agrave
ENCODING 224
SWIDTH 660 0
DWIDTH 9 0
BBX 8 11 0 0
BITMAP
18
0C
00
1B
7F
63
C3
C6
C6
7E
36
ENDCHAR

STARTCHAR aacute
ENCODING 225
SWIDTH 660 0
DWIDTH 9 0
BBX 8 11 0 0
BITMAP
06
0C
00
1B
7F
63
C3
C6
C6
7E
36
ENDCHAR

STARTCHAR acircumflex
ENCODING 226
SWIDTH 660 0
DWIDTH 9 0
BBX 8 11 0 0
BITMAP
1C
36
00
1B
7F
63
C3
C6
C6
7E
36
ENDCHAR

STARTCHAR atilde
ENCODING 227
SWIDTH 660 0
DWIDTH 9 0
BBX 8 11 0 0
BITMAP
0D
16
00
1B
7F
63
C3
C6
C6
7E
36
ENDCHAR

STARTCHAR adieresis
ENCODING 228
SWIDTH 660 0
DWIDTH 9 0
BBX 8 11 0 0
BITMAP
36
36
00
1B
7F
63
C3
C6
C6
7E
36
ENDCHAR

STARTCHAR aring
ENCODING 229
SWIDTH 660 0
DWIDTH 9 0
BBX 8 11 0 0
BITMAP
0C
12
0C
1B
7F
63
C3
C6
C6
7E
36
ENDCHAR

STARTCHAR ae
ENCODING 230
SWIDTH 1080 0
DWIDTH 14 0
BBX 13 8 0 0
BITMAP
1B70
7FF8
6318
C3F8
C7F8
C600
7FF0
36E0
ENDCHAR

STARTCHAR ccedilla
ENCODING 231
SWIDTH 640 0
DWIDTH 9 0
BBX 8 11 0 -3
BITMAP
1E
7F
63
C0
C0
C6
7E
38
20
90
60
ENDCHAR

STARTCHAR egrave
ENCODING 232
SWIDTH 640 0
DWIDTH 9 0
BBX 8 11 0 0
BITMAP
18
0C
00
1E
7F
63
FF
FF
C0
7E
3C
ENDCHAR

STARTCHAR eacute
ENCODING 233
SWIDTH 640 0
DWIDTH 9 0
BBX 8 11 0 0
BITMAP
06
0C
00
1E
7F
63
FF
FF
C0
7E
3C
ENDCHAR

STARTCHAR ecircumflex
ENCODING 234
SWIDTH 640 0
DWIDTH 9 0
BBX 8 11 0 0
BITMAP
1C
36
00
1E
7F
63
FF
FF
C0
7E
3C
ENDCHAR

STARTCHAR edieresis
ENCODING 235
SWIDTH 640 0
DWIDTH 9 0
BBX 8 11 0 0
BITMAP
36
36
00
1E
7F
63
FF
FF
C0
7E
3C
ENDCHAR

STARTCHAR igrave
ENCODING 236
SWIDTH 240 0
DWIDTH 4 0
BBX 4 11 0 0
BITMAP
60
30
00
60
60
60
60
C0
C0
C0
C0
ENDCHAR

STARTCHAR iacute
ENCODING 237
SWIDTH 240 0
DWIDTH 4 0
BBX 4 11 0 0
BITMAP
30
60
00
60
60
60
60
C0
C0
C0
C0
ENDCHAR

STARTCHAR icircumflex
ENCODING 238
SWIDTH 240 0
DWIDTH 4 0
BBX 5 11 0 0
BITMAP
70
D8
00
60
60
60
60
C0
C0
C0
C0
ENDCHAR

STARTCHAR idieresis
ENCODING 239
SWIDTH 240 0
DWIDTH 4 0
BBX 5 11 0 0
BITMAP
D8
D8
00
60
60
60
60
C0
C0
C0
C0
ENDCHAR

STARTCHAR eth
ENCODING 240
SWIDTH 640 0
DWIDTH 9 0
BBX 8 11 0 0
BITMAP
66
38
4C
1E
7F
63
C3
C3
C6
7E
38
ENDCHAR

STARTCHAR ntilde
ENCODING 241
SWIDTH 600 0
DWIDTH 9 0
BBX 8 11 0 0
BITMAP
1A
2C
00
6E
7F
63
63
C6
C6
C6
C6
ENDCHAR

STARTCHAR ograve
ENCODING 242
SWIDTH 640 0
DWIDTH 9 0
BBX 8 11 0 0
BITMAP
18
0C
00
1E
7F
63
C3
C3
C6
7E
38
ENDCHAR

STARTCHAR oacute
ENCODING 243
SWIDTH 640 0
DWIDTH 9 0
BBX 8 11 0 0
BITMAP
06
0C
00
1E
7F
63
C3
C3
C6
7E
38
ENDCHAR

STARTCHAR ocircumflex
ENCODING 244
SWIDTH 640 0
DWIDTH 9 0
BBX 8 11 0 0
BITMAP
1C
36
00
1E
7F
63
C3
C3
C6
7E
38
ENDCHAR

STARTCHAR otilde
ENCODING 245
SWIDTH 640 0
DWIDTH 9 0
BBX 8 11 0 0
BITMAP
1A
2C
00
1E
7F
63
C3
C3
C6
7E
38
ENDCHAR

STARTCHAR odieresis
ENCODING 246
SWIDTH 640 0
DWIDTH 9 0
BBX 8 11 0 0
BITMAP
36
36
00
1E
7F
63
C3
C3
C6
7E
38
ENDCHAR

STARTCHAR divide
ENCODING 247
SWIDTH 600 0
DWIDTH 10 0
BBX 9 8 0 0
BITMAP
0C00
0C00
0000
FF80
FF80
0000
1800
1800
ENDCHAR

STARTCHAR oslash
ENCODING 248
SWIDTH 660 0
DWIDTH 9 0
BBX 10 8 -1 0
BITMAP
0F40
3F80
3380
6580
6980
7300
7F00
9C00
ENDCHAR

STARTCHAR ugrave
ENCODING 249
SWIDTH 600 0
DWIDTH 9 0
BBX 8 11 0 0
BITMAP
18
0C
00
63
63
63
63
C6
C6
FE
76
ENDCHAR

STARTCHAR uacute
ENCODING 250
SWIDTH 600 0
DWIDTH 9 0
BBX 8 11 0 0
BITMAP
06
0C
00
63
63
63
63
C6
C6
FE
76
ENDCHAR

STARTCHAR ucircumflex
ENCODING 251
SWIDTH 600 0
DWIDTH 9 0
BBX 8 11 0 0
BITMAP
1C
36
00
63
63
63
63
C6
C6
FE
76
ENDCHAR

STARTCHAR udieresis
ENCODING 252
SWIDTH 600 0
DWIDTH 9 0
BBX 8 11 0 0
BITMAP
36
36
00
63
63
63
63
C6
C6
FE
76
ENDCHAR

STARTCHAR yacute
ENCODING 253
SWIDTH 580 0
DWIDTH 7 0
BBX 7 14 0 -3
BITMAP
0C
18
00
C6
C6
CC
6C
78
78
30
60
60
C0
C0
ENDCHAR

STARTCHAR thorn
ENCODING 254
SWIDTH 660 0
DWIDTH 9 0
BBX 9 14 -1 -3
BITMAP
1800
1800
1800
3700
3F80
3180
3180
6180
6300
7F00
6C00
C000
C000
C000
ENDCHAR

STARTCHAR ydieresis
ENCODING 255
SWIDTH 580 0
DWIDTH 9 0
BBX 8 14 0 -3
BITMAP
36
36
00
C3
C3
66
66
3C
3C
18
30
30
60
60
ENDCHAR
ENDFONT
